<?xml version="1.0" encoding="UTF-8" standalone="no"?>
<!-- Created with Inkscape (http://www.inkscape.org/) -->

<svg
 xmlns:svg="http://www.w3.org/2000/svg"
 xmlns="http://www.w3.org/2000/svg"
 version="1.1"
 width="720"
 height="720"
 id="svg2">
<defs
 id="defs4" />
<g
 transform="matrix(1.900188564997281,0,0,1.900188564997281,-326.430461565108,-319.2841417560885)"
 id="g2958">
<path
 d="m 529.3739013671875,317.4955139160156 a 164.2218322753906,54.74060821533203 0 1 1 -328.4436645507812,0 164.2218322753906,54.74060821533203 0 1 1 328.4436645507812,0 z"
 transform="translate(-3.864042933810368,145.5456171735242)"
 id="path2929"
 style="fill:#0000ff;fill-opacity:1;stroke:none" />
<path
 d="m 529.3739013671875,317.4955139160156 a 164.2218322753906,54.74060821533203 0 1 1 -328.4436645507812,0 164.2218322753906,54.74060821533203 0 1 1 328.4436645507812,0 z"
 transform="matrix(0.4999999999999999,-0.8660254037844385,0.8660254037844385,0.4999999999999999,-167.4881146887944,496.7916457893468)"
 id="path2931"
 style="fill:#ff0000;fill-opacity:1;stroke:none" />
<path
 d="m 529.3739013671875,317.4955139160156 a 164.2218322753906,54.74060821533203 0 1 1 -328.4436645507812,0 164.2218322753906,54.74060821533203 0 1 1 328.4436645507812,0 z"
 transform="matrix(-0.4999999999999999,-0.8660254037844385,-0.8660254037844385,0.4999999999999999,889.8755341620019,496.8351139542594)"
 id="path2933"
 style="fill:#00ff00;fill-opacity:1;stroke:none" />
<path
 d="m 360.3983956137506,194.4773972848442 c -1.8151595232473,0.083070703626 -3.6971629934049,0.3482773397952 -5.65625,0.78125 -1.5902376651841,0.4343710674893 -3.1190882734489,1.0284380470364 -4.53125,1.84375 -20.8839118508126,12.0573321287991 -15.1907727910063,62.8128348665514 10.96875,122.71875 26.1715961965962,-59.919975519744 31.8564158449214,-110.6905005016917 10.96875,-122.75 -1.1221489545377,-0.6478730009732 -2.2957524535017,-1.1559702377357 -3.53125,-1.5625 -2.8862159928233,-0.7127934591139 -5.6397959841205,-1.0625379041555 -8.21875,-1.03125 z"
 id="path2935"
 style="fill:#ffff00;fill-opacity:1;stroke:none" />
<path
 d="m 522.9075797997054,473.1728245945496 c 0.8356384219734,-1.6135096108665 1.5469644728771,-3.3759757441178 2.1515426532933,-5.2890811901556 0.4189424534792,-1.5943717498483 0.6688906617727,-3.2154287049711 0.6688906617727,-4.8460526108982 0,-24.1146642575982 -46.8021242826471,-44.5620125734048 -111.7619300206716,-51.8601588522396 38.8064228959419,52.6252549237127 79.9325774696187,82.9337156460694 100.8202433145398,70.8742161477607 1.1221489545377,-0.647873000973 2.1489758186484,-1.4101948266649 3.1187896934132,-2.2769022071138 2.0604052396553,-2.1431396410368 3.7400828095425,-4.352937642332 5.0024636976526,-6.6020212873534 z"
 id="path2940"
 style="fill:#00ffff;fill-opacity:1;stroke:none" />
<path
 d="m 199.4275307239639,473.2000769638389 c -0.8356384219734,-1.6135096108665 -1.5469644728775,-3.3759757441177 -2.1515426532932,-5.2890811901556 -0.4189424534792,-1.5943717498483 -0.6688906617728,-3.2154287049711 -0.6688906617728,-4.8460526108982 0,-24.1146642575982 46.8021242826473,-44.5620125734048 111.7619300206715,-51.8601588522396 -38.8064228959418,52.6252549237127 -79.9325774696187,82.9337156460694 -100.8202433145397,70.8742161477607 -1.1221489545377,-0.6478730009729 -2.1489758186488,-1.4101948266649 -3.1187896934132,-2.2769022071137 -2.0604052396557,-2.1431396410368 -3.7400828095425,-4.352937642332 -5.0024636976526,-6.6020212873534 z"
 id="path2942"
 style="fill:#ff00ff;fill-opacity:1;stroke:none" />
</g>
</svg>
